<svg xmlns="http://www.w3.org/2000/svg" width="3400" height="1520" viewBox="0 0 1700 760" role="img">
<defs><marker id="a" markerWidth="8" markerHeight="8" refX="7" refY="4" orient="auto"><path d="M0 0 L8 4 L0 8 Z" fill="#3b6fb6"/></marker>
<marker id="g" markerWidth="8" markerHeight="8" refX="7" refY="4" orient="auto"><path d="M0 0 L8 4 L0 8 Z" fill="#9aa4ad"/></marker>
<marker id="w" markerWidth="8" markerHeight="8" refX="7" refY="4" orient="auto"><path d="M0 0 L8 4 L0 8 Z" fill="#c0392b"/></marker>
<style>text{font-family:"Apple SD Gothic Neo","Noto Sans KR",Arial,sans-serif;fill:#18212b}.title{font-size:30px;font-weight:700;letter-spacing:-.6px}
.h{font-size:17px;font-weight:700}.h2{font-size:14px;font-weight:700;fill:#3f4a54}.sub{font-size:12.5px;fill:#5e6873}.msg{font-size:13.5px}
.mono{font-family:Menlo,ui-monospace,monospace;font-size:12.5px;fill:#3f4a54}.monob{font-family:Menlo,ui-monospace,monospace;font-size:13px;font-weight:700;fill:#18212b}
.small{font-size:13px;fill:#5e6873}.port{font-family:Menlo,ui-monospace,monospace;font-size:14px;font-weight:700;fill:#3b6fb6}
.call{fill:none;stroke:#3b6fb6;stroke-width:1.8;marker-end:url(#a)}.grey{fill:none;stroke:#9aa4ad;stroke-width:1.4;stroke-dasharray:5 4;marker-end:url(#g)}.write{fill:none;stroke:#c0392b;stroke-width:1.8;marker-end:url(#w)}
.impl{fill:none;stroke:#3b6fb6;stroke-width:1.3;stroke-dasharray:6 4;marker-end:url(#a)}
.box{fill:#fff;stroke:#bcc5cd;stroke-width:1.3}.stage{fill:#fff;stroke:#3b6fb6;stroke-width:1.6}.band{fill:#eef3fa;stroke:#9db0d2;stroke-width:1.2}
.db{fill:#fff7f2;stroke:#e0a080;stroke-width:1.4}.ext{fill:#f7f8fa;stroke:#bcc5cd;stroke-width:1.2}.v3{fill:#fffbe6;stroke:#e6d98a;stroke-width:1;stroke-dasharray:4 3}</style></defs><rect width="1700" height="760" fill="white"/>
<text x="40" y="44" class="title">파이프라인 지도 — 요청 한 건의 4단계와 연결 (v1, 2026-10-06 코드)</text>
<text x="40" y="68" class="small">파랑 호출 · 빨강 DB 쓰기 · 회색 점선 HTTP · 노랑 점선 v3 자리(미구현)</text>
<rect x="40" y="86" width="1620" height="44" rx="4" class="band"/>
<text x="56" y="114" class="monob">main.py lifespan()</text>
<text x="230" y="114" class="msg">카탈로그 리더 · 저장소 2 · Backend 포트 · Supervisor → app.state   ·   GET /health</text>
<rect x="40" y="180" width="375" height="150" rx="4" class="stage"/>
<text x="54" y="208" class="h">1 접수</text>
<text x="401" y="208" class="sub" text-anchor="end">intake.py</text>
<text x="54" y="238" class="mono">POST 7.6  extract-and-pool</text>
<text x="54" y="256" class="mono">검증 400 · 토큰 401 · 카탈로그 없음 503</text>
<text x="54" y="274" class="mono">supervisor.submit()  가득이면 503</text>
<text x="54" y="292" class="mono">→ 202 PENDING</text>
<rect x="455" y="180" width="375" height="150" rx="4" class="stage"/>
<text x="469" y="208" class="h">2 큐 · 워커</text>
<text x="816" y="208" class="sub" text-anchor="end">supervisor.py</text>
<text x="469" y="238" class="mono">submit() → queue → _worker()</text>
<text x="469" y="256" class="mono">dispatch(): run_lock() → decide()</text>
<text x="469" y="274" class="mono">analyze · resend · skip</text>
<rect x="870" y="180" width="375" height="150" rx="4" class="stage"/>
<text x="884" y="208" class="h">3 처리</text>
<text x="1231" y="208" class="sub" text-anchor="end">pipeline.py</text>
<text x="884" y="238" class="mono">profile()</text>
<text x="884" y="256" class="mono">save(RUNNING) → catalog.active()</text>
<text x="884" y="274" class="mono">build_pool()  재고·비선호 제외 · 조회수↓ 30</text>
<text x="884" y="292" class="mono">save(결과) → recipient_store.upsert()</text>
<rect x="1285" y="180" width="375" height="150" rx="4" class="stage"/>
<text x="1299" y="208" class="h">4 콜백 · 기록</text>
<text x="1646" y="208" class="sub" text-anchor="end">intake.py · backend.py</text>
<text x="1299" y="238" class="mono">send_profile_callback()</text>
<text x="1299" y="256" class="mono">POST 7.7 → 200 DELIVERED · 409 SUPERSEDED</text>
<text x="1299" y="274" class="mono">4xx FAILED · 5xx 즉시 3회</text>
<text x="1299" y="292" class="mono">store.save(마지막 상태)</text>
<rect x="884" y="300" width="347" height="22" rx="3" class="v3"/>
<text x="892" y="316" class="sub">v3 자리 — ProfileModel · Search (미구현)</text>
<path d="M415 220 H453" class="call"/>
<text x="435.0" y="170" class="sub" text-anchor="middle">rq</text>
<path d="M830 220 H868" class="call"/>
<text x="850.0" y="170" class="sub" text-anchor="middle">fn</text>
<path d="M1245 220 H1283" class="call"/>
<text x="1265.0" y="170" class="sub" text-anchor="middle">outcome</text>
<rect x="40" y="388" width="1620" height="46" rx="4" class="band"/>
<text x="56" y="417" class="monob">ports.py</text>
<text x="227.5" y="417" class="port" text-anchor="middle">CatalogReader</text>
<text x="642.5" y="417" class="port" text-anchor="middle">ProfileRunStore</text>
<text x="1057.5" y="417" class="port" text-anchor="middle">RecipientProfileStore</text>
<text x="1472.5" y="417" class="port" text-anchor="middle">BackendPort</text>
<path d="M227.5 330 V386" class="call"/>
<path d="M642.5 330 V386" class="call"/>
<path d="M1057.5 330 V386" class="call"/>
<path d="M1472.5 330 V386" class="call"/>
<rect x="40" y="480" width="375" height="66" rx="4" class="box"/>
<text x="54" y="507" class="h2">DbCatalogReader / FileCatalogReader</text>
<text x="401" y="507" class="sub" text-anchor="end">catalog.py</text>
<text x="54" y="530" class="mono">active()</text>
<path d="M227.5 478 V436" class="impl"/>
<rect x="455" y="480" width="375" height="66" rx="4" class="box"/>
<text x="469" y="507" class="h2">DbProfileRunStore</text>
<text x="816" y="507" class="sub" text-anchor="end">stores.py</text>
<text x="469" y="530" class="mono">save() · get_run() · run_lock()</text>
<path d="M642.5 478 V436" class="impl"/>
<rect x="870" y="480" width="375" height="66" rx="4" class="box"/>
<text x="884" y="507" class="h2">DbRecipientProfileStore</text>
<text x="1231" y="507" class="sub" text-anchor="end">stores.py</text>
<text x="884" y="530" class="mono">upsert() · get()</text>
<path d="M1057.5 478 V436" class="impl"/>
<rect x="1285" y="480" width="375" height="66" rx="4" class="box"/>
<text x="1299" y="507" class="h2">HttpBackendPort</text>
<text x="1646" y="507" class="sub" text-anchor="end">backend.py</text>
<text x="1299" y="530" class="mono">send_profile_callback()</text>
<path d="M1472.5 478 V436" class="impl"/>
<rect x="40" y="600" width="375" height="64" rx="4" class="db"/>
<text x="54" y="627" class="h2">PostgreSQL  ai_catalog</text>
<text x="54" y="650" class="mono">상품 4,231 · 활성 버전 1개</text>
<path d="M227.5 546 V598" class="write"/>
<rect x="455" y="600" width="375" height="64" rx="4" class="db"/>
<text x="469" y="627" class="h2">PostgreSQL  ai_profile.profile_runs</text>
<text x="469" y="650" class="mono">(수신자, 번호) UNIQUE · 콜백 본문 보관</text>
<path d="M642.5 546 V598" class="write"/>
<rect x="870" y="600" width="375" height="64" rx="4" class="db"/>
<text x="884" y="627" class="h2">PostgreSQL  ai_profile.recipient_profiles</text>
<text x="884" y="650" class="mono">수신자 1명 = 1행 · 태그 보관</text>
<path d="M1057.5 546 V598" class="write"/>
<rect x="1285" y="600" width="375" height="64" rx="4" class="ext"/>
<text x="1299" y="627" class="h2">Backend  develop :8080 · 가짜 :8081</text>
<text x="1299" y="650" class="mono">7.7 수신 — 200 · 409 · 400</text>
<path d="M1472.5 546 V598" class="grey"/>
</svg>
