<svg xmlns="http://www.w3.org/2000/svg" width="3400" height="1580" viewBox="0 0 1700 790" role="img">
<defs><marker id="a" markerWidth="8" markerHeight="8" refX="7" refY="4" orient="auto"><path d="M0 0 L8 4 L0 8 Z" fill="#3b6fb6"/></marker>
<marker id="g" markerWidth="8" markerHeight="8" refX="7" refY="4" orient="auto"><path d="M0 0 L8 4 L0 8 Z" fill="#9aa4ad"/></marker>
<marker id="w" markerWidth="8" markerHeight="8" refX="7" refY="4" orient="auto"><path d="M0 0 L8 4 L0 8 Z" fill="#c0392b"/></marker>
<style>text{font-family:"Apple SD Gothic Neo","Noto Sans KR",Arial,sans-serif;fill:#18212b}.title{font-size:30px;font-weight:700;letter-spacing:-.6px}
.h{font-size:16px;font-weight:700}.h2{font-size:14px;font-weight:700;fill:#3f4a54}.sub{font-size:12.5px;fill:#5e6873}.msg{font-size:13.5px}
.mono{font-family:Menlo,ui-monospace,monospace;font-size:12.5px;fill:#3f4a54}.monob{font-family:Menlo,ui-monospace,monospace;font-size:15px;font-weight:700;fill:#18212b}
.small{font-size:13px;fill:#5e6873}.tag{font-size:12px;font-weight:700;fill:#8a94a0;letter-spacing:.4px}
.port{font-family:Menlo,ui-monospace,monospace;font-size:14px;font-weight:700;fill:#3b6fb6}
.call{fill:none;stroke:#3b6fb6;stroke-width:1.8;marker-end:url(#a)}.grey{fill:none;stroke:#9aa4ad;stroke-width:1.4;stroke-dasharray:5 4;marker-end:url(#g)}
.write{fill:none;stroke:#c0392b;stroke-width:1.8;marker-end:url(#w)}.impl{fill:none;stroke:#3b6fb6;stroke-width:1.3;stroke-dasharray:6 4;marker-end:url(#a)}
.box{fill:#fff;stroke:#bcc5cd;stroke-width:1.3}.stage{fill:#fff;stroke:#3b6fb6;stroke-width:1.6}.band{fill:#eef3fa;stroke:#9db0d2;stroke-width:1.2}
.core{fill:#f4f8ff;stroke:#3b6fb6;stroke-width:1.8}.db{fill:#fff7f2;stroke:#e0a080;stroke-width:1.4}.ext{fill:#f7f8fa;stroke:#bcc5cd;stroke-width:1.2}
</style></defs><rect width="1700" height="790" fill="white"/>
<text x="40" y="46" class="title">profiling 구조 — 모듈과 의존 방향 (v1)</text>
<text x="40" y="70" class="small">파랑 호출 · 빨강 DB 쓰기 · 회색 점선 조립 · 화살표는 안쪽(업무)으로</text>
<rect x="40" y="90" width="1620" height="46" rx="5" class="band"/>
<text x="56" y="119" class="monob">main.py</text>
<text x="150" y="119" class="msg">lifespan() — 구현 4개 + Supervisor 를 만들어 app.state 에 둔다 · GET /health</text>
<text x="1644" y="119" class="sub" text-anchor="end">settings.py — PROFILING_*</text>
<path d="M 345.0 136 L 345.0 520" class="grey"/>
<path d="M 721.0 136 L 721.0 520" class="grey"/>
<path d="M 1097.0 136 L 1097.0 520" class="grey"/>
<path d="M 1473.0 136 L 1473.0 520" class="grey"/>
<text x="40" y="160" class="tag">경계</text>
<rect x="40" y="168" width="300" height="74" rx="5" class="ext"/>
<text x="56" y="194" class="h">Backend</text>
<text x="56" y="218" class="mono">POST 7.6  extract-and-pool</text>
<rect x="390" y="168" width="420" height="74" rx="5" class="stage"/>
<text x="406" y="194" class="monob">intake.py</text>
<text x="406" y="216" class="mono">extract_and_pool() → 202 PENDING</text>
<text x="406" y="233" class="mono">dispatch() → run_and_callback | resend_callback</text>
<rect x="840" y="168" width="360" height="74" rx="5" class="stage"/>
<text x="856" y="194" class="monob">schemas.py</text>
<text x="856" y="218" class="mono">7.6 · 7.7 · 7.9 DTO  (camelCase)</text>
<rect x="1230" y="168" width="430" height="74" rx="5" class="stage"/>
<text x="1246" y="194" class="monob">supervisor.py</text>
<text x="1246" y="218" class="mono">submit() → 큐 → 워커 N  (가득이면 503)</text>
<path d="M 340 205 L 384 205" class="call"/>
<path d="M 810 226 L 836 226" class="grey"/>
<path d="M 1200 205 L 1224 205" class="call"/>
<text x="40" y="280" class="tag">업무 — 바깥을 모른다</text>
<rect x="40" y="288" width="1620" height="96" rx="5" class="core"/>
<rect x="66" y="304" width="780" height="64" rx="5" class="box"/>
<text x="82" y="328" class="monob">pipeline.py</text>
<text x="82" y="350" class="mono">profile()  ·  to_internal  ·  needs_model  ·  build_pool</text>
<rect x="874" y="304" width="760" height="64" rx="5" class="box"/>
<text x="890" y="328" class="monob">types.py</text>
<text x="890" y="350" class="mono">ProfileRequest · ProfileOutcome · RecipientProfile · RunStatus</text>
<path d="M 590 242 L 590 286" class="call"/>
<text x="600" y="272" class="mono">run_and_callback()</text>
<text x="40" y="418" class="tag">포트 (typing.Protocol)</text>
<rect x="40" y="428" width="1620" height="50" rx="5" class="band"/>
<text x="56" y="459" class="monob">ports.py</text>
<text x="345.0" y="459" class="port" text-anchor="middle">CatalogReader</text>
<text x="721.0" y="459" class="port" text-anchor="middle">ProfileRunStore</text>
<text x="1097.0" y="459" class="port" text-anchor="middle">RecipientProfileStore</text>
<text x="1473.0" y="459" class="port" text-anchor="middle">BackendPort</text>
<path d="M 1560 384 L 1560 426" class="call"/>
<text x="40" y="518" class="tag">구현</text>
<rect x="170" y="528" width="350" height="70" rx="5" class="box"/>
<text x="186" y="556" class="h2">DbCatalogReader / FileCatalogReader</text>
<text x="504" y="556" class="mono" text-anchor="end">catalog.py</text>
<text x="186" y="580" class="mono">active()</text>
<path d="M 345.0 526 L 345.0 480" class="impl"/>
<rect x="546" y="528" width="350" height="70" rx="5" class="box"/>
<text x="562" y="556" class="h2">DbProfileRunStore</text>
<text x="880" y="556" class="mono" text-anchor="end">stores.py</text>
<text x="562" y="580" class="mono">save() · get_run() · run_lock()</text>
<path d="M 721.0 526 L 721.0 480" class="impl"/>
<rect x="922" y="528" width="350" height="70" rx="5" class="box"/>
<text x="938" y="556" class="h2">DbRecipientProfileStore</text>
<text x="1256" y="556" class="mono" text-anchor="end">stores.py</text>
<text x="938" y="580" class="mono">upsert() · get()</text>
<path d="M 1097.0 526 L 1097.0 480" class="impl"/>
<rect x="1298" y="528" width="350" height="70" rx="5" class="box"/>
<text x="1314" y="556" class="h2">HttpBackendPort</text>
<text x="1632" y="556" class="mono" text-anchor="end">backend.py</text>
<text x="1314" y="580" class="mono">send_profile_callback()</text>
<path d="M 1473.0 526 L 1473.0 480" class="impl"/>
<text x="40" y="650" class="tag">바깥</text>
<rect x="170" y="660" width="350" height="64" rx="5" class="db"/>
<text x="186" y="687" class="h2">PostgreSQL  ai_catalog</text>
<text x="186" y="710" class="mono">상품 4,231 · 카테고리 67</text>
<path d="M 345.0 598 L 345.0 658" class="write"/>
<rect x="546" y="660" width="350" height="64" rx="5" class="db"/>
<text x="562" y="687" class="h2">PostgreSQL  ai_profile.profile_runs</text>
<text x="562" y="710" class="mono">실행 1건 = 1행</text>
<path d="M 721.0 598 L 721.0 658" class="write"/>
<rect x="922" y="660" width="350" height="64" rx="5" class="db"/>
<text x="938" y="687" class="h2">PostgreSQL  ai_profile.recipient_profiles</text>
<text x="938" y="710" class="mono">수신자 1명 = 1행</text>
<path d="M 1097.0 598 L 1097.0 658" class="write"/>
<rect x="1298" y="660" width="350" height="64" rx="5" class="ext"/>
<text x="1314" y="687" class="h2">Backend</text>
<text x="1314" y="710" class="mono">POST 7.7  상품 ID ≤30</text>
<path d="M 1473.0 598 L 1473.0 658" class="call"/>
</svg>
